<svg viewBox="0 0 100 80" fill="none" xmlns="http://www.w3.org/2000/svg">
<path fill-rule="evenodd" clip-rule="evenodd" d="M15 8H85C85.3276 8 85.6499 8.0225 85.9656 8.06605L54.288 32.6162C51.764 34.5723 48.236 34.5723 45.712 32.6162L14.0344 8.06605C14.3501 8.0225 14.6724 8 15 8ZM8.13668 13.6166C8.04703 14.0638 8 14.5264 8 15V65C8 68.866 11.134 72 15 72H85C88.866 72 92 68.866 92 65V15C92 14.5264 91.953 14.0638 91.8633 13.6166L59.1886 38.9395C53.7799 43.1312 46.2201 43.1312 40.8114 38.9395L8.13668 13.6166ZM0 15C0 6.71573 6.71573 0 15 0H85C93.2843 0 100 6.71573 100 15V65C100 73.2843 93.2843 80 85 80H15C6.71573 80 0 73.2843 0 65V15Z" fill="#808080"/>
</svg>
