<svg width="250" height="114" viewBox="0 0 250 114" fill="none" xmlns="http://www.w3.org/2000/svg">
<path fill-rule="evenodd" clip-rule="evenodd" d="M79.541 27.6565C73.2997 22.855 65.4833 20 57 20C36.5655 20 20 36.5655 20 57C20 77.4345 36.5655 94 57 94C73.7397 94 87.883 82.8835 92.4503 67.63L108.067 82.3485C98.7375 101.109 79.3742 114 57 114C25.5198 114 0 88.4802 0 57C0 25.5198 25.5198 0 57 0C73.9136 0 89.1067 7.36673 99.5456 19.0666L170.459 86.3435C176.7 91.145 184.517 94 193 94C213.435 94 230 77.4345 230 57C230 36.5655 213.435 20 193 20C176.26 20 162.117 31.1165 157.55 46.37L141.933 31.6515C151.263 12.8913 170.626 0 193 0C224.48 0 250 25.5198 250 57C250 88.4802 224.48 114 193 114C176.086 114 160.893 106.633 150.454 94.9333L79.541 27.6565ZM213 57C213 68.0457 204.046 77 193 77C181.954 77 173 68.0457 173 57C173 45.9543 181.954 37 193 37C204.046 37 213 45.9543 213 57ZM57 77C68.0457 77 77 68.0457 77 57C77 45.9543 68.0457 37 57 37C45.9543 37 37 45.9543 37 57C37 68.0457 45.9543 77 57 77Z" fill="url(#paint0_linear_74_34)"/>
<defs>
<linearGradient id="paint0_linear_74_34" x1="78.5" y1="127" x2="125" y2="-14.5" gradientUnits="userSpaceOnUse">
<stop stop-color="#5E5E5E"/>
<stop offset="1" stop-color="#B3B3B3"/>
</linearGradient>
</defs>
</svg>
